[img]http://img43.imageshack.us/img43/4572/jackijj.jpg[/img]
[code]

Jack and Jill 2011 TS NEW SOURCE READNFO XviD - FYA


iMDB 
http://www.imdb.com/title/tt0810913/

pLOT
Family guy Jack Sadelstein prepares for the annual event 
he dreads: the Thanksgiving visit of his twin sister, 
the needy and passive-aggressive Jill, who then refuses 
to leave.

rEADNFO

FIRST 1 MINUTE 10 SECONDS FROM PREVIOUS CAM
MISSING 50 SECONDS AT 13 MINUTES 41 SECONDS

so here we are with a fixed version of jack and jill  
by popular demand as the other TS was a bit blur at the start 
readnfo is for the above 


iNFO

video
ID                               : 0
Format                           : MPEG-4 Visual
Format profile                   : Advanced Simple@L5
Format settings, BVOP            : 2
Format settings, QPel            : No
Format settings, GMC             : No warppoints
Format settings, Matrix          : Default (H.263)
Muxing mode                      : Packed bitstream
Codec ID                         : XVID
Codec ID/Hint                    : XviD
Duration                         : 1h 27mn
Bit rate                         : 2 064 Kbps
Width                            : 720 pixels
Height                           : 320 pixels
Display aspect ratio             : 2.25:1
Frame rate                       : 24.000 fps
Color space                      : YUV
Chroma subsampling               : 4:2:0
Bit depth                        : 8 bits
Scan type                        : Progressive
Compression mode                 : Lossy
Bits/(Pixel*Frame)               : 0.373
Stream size                      : 1.26 GiB (94%)
Writing library                  : XviD 64

audio
ID                               : 1
Format                           : MPEG Audio
Format version                   : Version 1
Format profile                   : Layer 3
Mode                             : Joint stereo
Mode extension                   : MS Stereo
Codec ID                         : 55
Codec ID/Hint                    : MP3
Duration                         : 1h 27mn
Bit rate mode                    : Constant
Bit rate                         : 128 Kbps
Channel(s)                       : 2 channels
Sampling rate                    : 44.1 KHz
Compression mode                 : Lossy
Stream size                      : 80.2 MiB (6%)
Alignment                        : Split accross interleaves
Interleave, duration             : 42 ms (1.00 video frame)
Writing library                  : LAME3.98r
Encoding settings                : -m j -V 4 -q 2 -lowpass 17 -b 128

[/code]
Screems:
[img]http://img440.imageshack.us/img440/1637/92912367.png[/img]
[img]http://img850.imageshack.us/img850/533/14127327.png[/img]
[img]http://img847.imageshack.us/img847/1151/40341651.png[/img]
[img]http://img818.imageshack.us/img818/2606/81621889.png[/img]
[img]http://img835.imageshack.us/img835/1288/83822205.png[/img]